<svg width="20" height="20" viewBox="0 0 20 20" fill="none" xmlns="http://www.w3.org/2000/svg">
<path opacity="0.5" fill-rule="evenodd" clip-rule="evenodd" d="M19.5999 10C19.5999 15.302 15.3018 19.6 9.9999 19.6C4.69797 19.6 0.399902 15.302 0.399902 10C0.399902 4.69809 4.69797 0.400024 9.9999 0.400024C15.3018 0.400024 19.5999 4.69809 19.5999 10ZM12.3999 6.40002C12.3999 7.72551 11.3254 8.80002 9.9999 8.80002C8.67442 8.80002 7.5999 7.72551 7.5999 6.40002C7.5999 5.07454 8.67442 4.00002 9.9999 4.00002C11.3254 4.00002 12.3999 5.07454 12.3999 6.40002ZM9.99982 11.2C7.57877 11.2 5.49264 12.634 4.54438 14.6989C5.86474 16.2305 7.81908 17.2 9.99988 17.2C12.1806 17.2 14.1349 16.2305 15.4553 14.699C14.5071 12.634 12.4209 11.2 9.99982 11.2Z" fill="white"/>
</svg>
