<svg width="24" height="24" viewBox="0 0 24 24" fill="none" xmlns="http://www.w3.org/2000/svg">
<g clip-path="url(#clip0_273_6640)">
<path d="M19.7668 15.7063C19.1032 14.7544 18.7717 13.682 18.7717 12.49C18.7717 11.4035 19.0846 10.4081 19.7091 9.50439C20.0456 9.01402 20.5938 8.44687 21.3535 7.80252C20.8535 7.18733 20.3536 6.70656 19.8533 6.36032C18.9495 5.73542 17.9253 5.42297 16.7812 5.42297C16.0987 5.42297 15.2668 5.58635 14.2862 5.91349C13.3439 6.24039 12.6563 6.40401 12.2238 6.40401C11.8967 6.40401 11.2334 6.25989 10.2334 5.97128C9.22383 5.68278 8.37282 5.53866 7.68054 5.53866C6.02671 5.53866 4.66134 6.23104 3.58447 7.61551C2.49795 9.01938 1.95459 10.8174 1.95459 13.0097C1.95459 15.3366 2.66147 17.7547 4.07484 20.2643C5.5074 22.7546 6.95456 24 8.41606 24C8.90643 24 9.54107 23.8365 10.3198 23.5096C11.0988 23.1925 11.7814 23.0336 12.368 23.0336C12.9928 23.0336 13.7189 23.1875 14.5457 23.495C15.4206 23.8024 16.0939 23.9563 16.565 23.9563C17.7956 23.9563 19.0314 23.0139 20.2716 21.1294C21.0791 19.9276 21.6705 18.7257 22.0455 17.5237C21.1897 17.2639 20.4303 16.6581 19.7668 15.7063Z" fill="black"/>
<path d="M14.8629 4.55759C15.4688 3.95184 15.9158 3.2883 16.2044 2.56727C16.4831 1.84614 16.6222 1.1922 16.6222 0.605597C16.6222 0.567255 16.6201 0.519112 16.6149 0.461371C16.6106 0.403681 16.608 0.35574 16.608 0.317246C16.5983 0.288351 16.5864 0.23546 16.5721 0.158623C16.5577 0.081787 16.5457 0.0288957 16.5359 0C14.8436 0.394436 13.6418 1.10592 12.9302 2.1348C12.2093 3.17327 11.8341 4.40872 11.8052 5.84138C12.4494 5.78364 12.9492 5.70205 13.3051 5.59622C13.8247 5.4231 14.3434 5.0768 14.8629 4.55759Z" fill="black"/>
</g>
<defs>
<clipPath id="clip0_273_6640">
<rect width="24" height="24" fill="white"/>
</clipPath>
</defs>
</svg>
