<svg width="23" height="24" viewBox="0 0 23 24" fill="none" xmlns="http://www.w3.org/2000/svg">
<path d="M22.4418 12.5315C22.4467 12.5266 22.4467 12.5266 22.4516 12.5217C22.4663 12.5021 22.481 12.4875 22.4908 12.4679C22.4957 12.463 22.4957 12.4581 22.5006 12.4532C22.5104 12.4336 22.5251 12.414 22.5349 12.3944C22.5349 12.3895 22.5398 12.3846 22.5398 12.3846C22.5496 12.365 22.5594 12.3454 22.5692 12.3209C22.5692 12.316 22.5692 12.316 22.5741 12.3111C22.5839 12.2915 22.5888 12.267 22.5986 12.2425C22.5986 12.2376 22.5986 12.2327 22.6035 12.2327C22.6084 12.2082 22.6182 12.1886 22.6182 12.1641C22.6182 12.1543 22.6182 12.1494 22.6231 12.1396C22.628 12.12 22.628 12.1004 22.6329 12.0808C22.6378 12.0514 22.6378 12.0269 22.6378 11.9976C22.6378 11.9682 22.6378 11.9437 22.6329 11.9143C22.6329 11.8947 22.628 11.8751 22.6231 11.8555C22.6231 11.8457 22.6231 11.8408 22.6182 11.831C22.6133 11.8065 22.6084 11.7869 22.6035 11.7624C22.6035 11.7575 22.6035 11.7526 22.5986 11.7526C22.5937 11.7281 22.5839 11.7085 22.5741 11.684C22.5741 11.6791 22.5741 11.6791 22.5692 11.6742C22.5594 11.6546 22.5496 11.6301 22.5398 11.6105C22.5398 11.6056 22.5349 11.6007 22.5349 11.6007C22.5251 11.5811 22.5153 11.5615 22.5006 11.542C22.4957 11.5371 22.4957 11.5322 22.4908 11.5273C22.4761 11.5077 22.4663 11.4881 22.4516 11.4734C22.4467 11.4685 22.4467 11.4685 22.4418 11.4636C22.4222 11.444 22.4075 11.4195 22.383 11.3999L17.5379 6.55971C17.2097 6.23148 16.6757 6.23148 16.3475 6.55971C16.0193 6.88794 16.0193 7.42193 16.3475 7.75016L19.7572 11.1598H6.20175C5.73635 11.1598 5.35913 11.5371 5.35913 11.9976C5.35913 12.463 5.73635 12.8402 6.20175 12.8402H19.7621L16.3769 16.2254C16.0487 16.5536 16.0487 17.0876 16.3769 17.4158C16.5386 17.5775 16.7541 17.6608 16.9697 17.6608C17.1852 17.6608 17.4008 17.5775 17.5624 17.4158L22.3781 12.6001C22.4026 12.5707 22.4222 12.5511 22.4418 12.5315Z" fill="#EB3689"/>
<path d="M4.92324 1.68034H11.1939C11.6593 1.68034 12.0365 1.30312 12.0365 0.842621C12.0365 0.37722 11.6593 0 11.1939 0H4.92324C2.41007 0 0.362305 2.04776 0.362305 4.56093V19.4391C0.362305 21.9522 2.41007 24 4.92324 24H11.091C11.5564 24 11.9336 23.6228 11.9336 23.1623C11.9336 22.6969 11.5564 22.3197 11.091 22.3197H4.92324C3.33597 22.3197 2.04265 21.0263 2.04265 19.4391V4.56093C2.04755 2.96877 3.33597 1.68034 4.92324 1.68034Z" fill="#EB3689"/>
</svg>
