<svg width="24" height="24" viewBox="0 0 24 24" fill="none" xmlns="http://www.w3.org/2000/svg">
<g clip-path="url(#clip0_284_1549)">
<path d="M17.25 23.998H2.75006C1.23303 23.998 0 22.765 0 21.2479V6.74799C0 5.23096 1.23303 3.99792 2.75006 3.99792H11.25C11.664 3.99792 12 4.33392 12 4.74792C12 5.16193 11.664 5.49792 11.25 5.49792H2.75006C2.06104 5.49792 1.5 6.05896 1.5 6.74799V21.2479C1.5 21.937 2.06104 22.498 2.75006 22.498H17.25C17.939 22.498 18.5001 21.937 18.5001 21.2479V12.748C18.5001 12.334 18.8361 11.998 19.2501 11.998C19.6641 11.998 20.0001 12.3331 20.0001 12.748V21.2479C20.0001 22.765 18.767 23.998 17.25 23.998Z" fill="white"/>
<path d="M8.77207 15.976C8.57505 15.976 8.38297 15.898 8.24198 15.7561C8.064 15.579 7.98801 15.324 8.03708 15.079L8.74405 11.543C8.77298 11.3971 8.84494 11.264 8.94895 11.16L19.3061 0.804062C20.378 -0.268021 22.1221 -0.268021 23.1951 0.804062C23.714 1.32298 24 2.01311 24 2.74809C24 3.48308 23.714 4.17302 23.194 4.69212L12.8381 15.0491C12.7341 15.154 12.6001 15.2251 12.4551 15.254L8.92002 15.961C8.87094 15.9711 8.82096 15.976 8.77207 15.976ZM12.308 14.519H12.3181H12.308ZM10.1701 12.0601L9.72898 14.27L11.938 13.828L22.134 3.63213C22.37 3.395 22.5 3.08208 22.5 2.74809C22.5 2.41411 22.37 2.101 22.134 1.86406C21.648 1.377 20.855 1.377 20.3661 1.86406L10.1701 12.0601Z" fill="white"/>
<path d="M21.2499 6.32703C21.058 6.32703 20.866 6.25397 20.72 6.10693L17.892 3.27795C17.599 2.98499 17.599 2.51001 17.892 2.21704C18.1849 1.92407 18.6599 1.92407 18.9531 2.21704L21.7809 5.04602C22.0739 5.33899 22.0739 5.81396 21.7809 6.10693C21.6339 6.25305 21.442 6.32703 21.2499 6.32703Z" fill="white"/>
</g>
<defs>
<clipPath id="clip0_284_1549">
<rect width="24" height="24" fill="white"/>
</clipPath>
</defs>
</svg>
