<svg width="16" height="16" viewBox="0 0 16 16" fill="none" xmlns="http://www.w3.org/2000/svg">
<path d="M13.841 12.6678C12.8959 13.662 11.6858 14.2096 10.4337 14.2096C8.38139 14.2096 6.60442 12.7684 5.76812 10.6851H11.4686C11.963 10.6851 12.3637 10.2843 12.3637 9.79C12.3637 9.29569 11.963 8.89491 11.4686 8.89491H5.31326C5.27806 8.60228 5.25883 8.30377 5.25883 7.99979C5.25883 7.65691 5.28298 7.3208 5.32801 6.99279H11.4686C11.963 6.99279 12.3637 6.59202 12.3637 6.0977C12.3637 5.60339 11.963 5.20258 11.4686 5.20258H5.81574C6.66997 3.1803 8.41855 1.79002 10.4337 1.79002C11.6858 1.79002 12.8959 2.33764 13.841 3.33166C14.1812 3.68974 14.7474 3.70445 15.1063 3.3639C15.4647 3.02321 15.4789 2.45665 15.1386 2.0984C13.8524 0.745233 12.1815 3.05176e-05 10.4339 3.05176e-05C7.44982 3.05176e-05 4.89902 2.16731 3.90918 5.20284H1.51056C1.01625 5.20284 0.615479 5.60361 0.615479 6.09793C0.615479 6.59224 1.01625 6.99301 1.51056 6.99301H3.52564C3.48937 7.32332 3.46862 7.65876 3.46862 8.00001C3.46862 8.30288 3.48445 8.60099 3.5134 8.89513H1.51056C1.01625 8.89513 0.615479 9.29591 0.615479 9.79022C0.615479 10.2845 1.01625 10.6853 1.51056 10.6853H3.87365C4.8365 13.7795 7.41306 16 10.4337 16C12.1815 16 13.8519 15.2546 15.1382 13.9017C15.4786 13.5433 15.4647 12.9768 15.1061 12.6362C14.7479 12.2955 14.1812 12.3097 13.841 12.6678Z" fill="#0A2A67"/>
</svg>
