<svg width="25" height="24" viewBox="0 0 25 24" fill="none" xmlns="http://www.w3.org/2000/svg">
<path d="M10.2047 13.2399C10.1293 13.2399 8.54842 13.2404 7.8193 13.2397C7.44394 13.2394 7.31002 13.1045 7.31002 12.7268C7.30954 11.7565 7.3093 10.7861 7.31002 9.81581C7.31026 9.44285 7.45186 9.30053 7.82242 9.30029C8.55154 9.29981 10.1238 9.30005 10.2047 9.30005C10.2047 9.23357 10.2044 7.83269 10.2047 7.18757C10.2051 6.23381 10.3753 5.32085 10.8599 4.48493C11.3559 3.62933 12.0779 3.04325 13.0031 2.70437C13.5956 2.48717 14.2107 2.40053 14.8395 2.40005C15.6263 2.39957 16.413 2.40029 17.1999 2.40173C17.5381 2.40221 17.6881 2.55173 17.6888 2.89229C17.6903 3.80501 17.6903 4.71773 17.6888 5.63021C17.6883 5.97437 17.5446 6.11261 17.1987 6.11645C16.5539 6.12341 15.9085 6.11909 15.2643 6.14501C14.6137 6.14501 14.2715 6.46277 14.2715 7.13621C14.2559 7.84853 14.265 8.56157 14.265 9.29981C14.3259 9.29981 16.1775 9.29957 17.043 9.29981C17.4361 9.29981 17.5705 9.43493 17.5705 9.83021C17.5705 10.7952 17.5703 11.7605 17.5695 12.7256C17.5693 13.1151 17.4431 13.2394 17.0475 13.2397C16.1821 13.2401 14.3377 13.2399 14.2571 13.2399V21.0507C14.2571 21.4671 14.126 21.5998 13.7151 21.5998C12.7134 21.5998 11.7114 21.6 10.7096 21.5998C10.3465 21.5998 10.2049 21.4587 10.2049 21.0956C10.2047 18.5518 10.2047 13.3292 10.2047 13.2399Z" fill="#3D6AD6"/>
</svg>
