<svg width="21" height="20" viewBox="0 0 21 20" fill="none" xmlns="http://www.w3.org/2000/svg">
<path d="M11.3484 0.751496C10.8798 0.282867 10.12 0.282867 9.65137 0.751496L1.25137 9.1515C0.782745 9.62013 0.782745 10.3799 1.25137 10.8486C1.72 11.3172 2.4798 11.3172 2.94843 10.8486L3.2999 10.4971V18.4C3.2999 19.0628 3.83716 19.6 4.4999 19.6H6.8999C7.56264 19.6 8.0999 19.0628 8.0999 18.4V16C8.0999 15.3373 8.63716 14.8 9.2999 14.8H11.6999C12.3626 14.8 12.8999 15.3373 12.8999 16V18.4C12.8999 19.0628 13.4372 19.6 14.0999 19.6H16.4999C17.1626 19.6 17.6999 19.0628 17.6999 18.4V10.4971L18.0514 10.8486C18.52 11.3172 19.2798 11.3172 19.7484 10.8486C20.2171 10.3799 20.2171 9.62013 19.7484 9.1515L11.3484 0.751496Z" fill="white"/>
</svg>
