<svg width="27" height="27" viewBox="0 0 27 27" fill="none" xmlns="http://www.w3.org/2000/svg">
<path d="M13.5 -1.18021e-06C20.9441 -5.2942e-07 27 6.05586 27 13.5C27 20.9441 20.9441 27 13.5 27C6.05586 27 7.63535e-08 20.9441 7.27141e-07 13.5C1.37793e-06 6.05586 6.05586 -1.83099e-06 13.5 -1.18021e-06ZM9.32961 14.2954L14.9546 19.9204C15.174 20.1397 15.462 20.25 15.75 20.25C16.038 20.25 16.326 20.1397 16.5454 19.9204C16.9853 19.4805 16.9853 18.7695 16.5454 18.3296L11.7157 13.5L16.5454 8.67037C16.9852 8.23052 16.9852 7.5195 16.5454 7.07964C16.1055 6.63979 15.3945 6.63979 14.9546 7.07964L9.32961 12.7047C8.88975 13.1445 8.88975 13.8555 9.32961 14.2954Z" fill="white"/>
</svg>
