<svg width="27" height="27" viewBox="0 0 27 27" fill="none" xmlns="http://www.w3.org/2000/svg">
<path d="M13.5 27C6.05586 27 0 20.9441 0 13.5C0 6.05586 6.05586 0 13.5 0C20.9441 0 27 6.05586 27 13.5C27 20.9441 20.9441 27 13.5 27ZM17.6704 12.7046L12.0454 7.07964C11.826 6.86027 11.538 6.75 11.25 6.75C10.962 6.75 10.674 6.86027 10.4546 7.07964C10.0147 7.5195 10.0147 8.23052 10.4546 8.67037L15.2843 13.5L10.4546 18.3296C10.0148 18.7695 10.0148 19.4805 10.4546 19.9204C10.8945 20.3602 11.6055 20.3602 12.0454 19.9204L17.6704 14.2953C18.1103 13.8555 18.1103 13.1445 17.6704 12.7046Z" fill="white"/>
</svg>
