<svg width="25" height="25" viewBox="0 0 25 25" fill="none" xmlns="http://www.w3.org/2000/svg">
<g clip-path="url(#clip0_371_6542)">
<path d="M22.0692 16.6948C21.3972 18.516 20.381 20.0995 19.0483 21.4009C17.5314 22.8821 15.5451 24.0591 13.1445 24.8987C13.0657 24.9262 12.9835 24.9487 12.9009 24.9653C12.7918 24.9869 12.6808 24.9985 12.5708 25H12.5492C12.4319 25 12.314 24.9882 12.1971 24.9653C12.1145 24.9487 12.0335 24.9262 11.9551 24.8993C9.55162 24.061 7.56283 22.8846 6.04438 21.4033C4.71115 20.1019 3.6951 18.5194 3.0241 16.6983C1.80396 13.3871 1.87339 9.7395 1.92928 6.80829L1.93023 6.76328C1.94148 6.52123 1.94873 6.26698 1.95274 5.98622C1.97315 4.60778 3.06911 3.46737 4.44774 3.39051C7.32212 3.2301 9.54571 2.29264 11.4456 0.440791L11.4622 0.425532C11.7777 0.136187 12.1752 -0.00572016 12.5708 0.000192647C12.9522 0.00515177 13.3322 0.146868 13.6364 0.425532L13.6526 0.440791C15.5529 2.29264 17.7765 3.2301 20.6509 3.39051C22.0295 3.46737 23.1255 4.60778 23.1459 5.98622C23.1499 6.26889 23.1571 6.52276 23.1684 6.76328L23.169 6.78235C23.2247 9.7191 23.2937 13.374 22.0692 16.6948Z" fill="#FFDA44"/>
<path d="M22.0692 16.6949C21.3973 18.516 20.381 20.0995 19.0484 21.4009C17.5314 22.8821 15.5451 24.0591 13.1445 24.8988C13.0658 24.9262 12.9836 24.9487 12.901 24.9653C12.7919 24.9869 12.6809 24.9985 12.5708 25V0.000198364C12.9523 0.00515749 13.3322 0.146874 13.6364 0.425538L13.6526 0.440796C15.5529 2.29264 17.7765 3.23011 20.6509 3.39051C22.0295 3.46738 23.1255 4.60779 23.1459 5.98623C23.1499 6.2689 23.1572 6.52277 23.1684 6.76328L23.169 6.78236C23.2247 9.7191 23.2937 13.374 22.0692 16.6949Z" fill="#FFB655"/>
<path d="M18.7792 12.5C18.7792 15.9281 15.9958 18.7186 12.5705 18.7308H12.5486C9.11328 18.7308 6.31787 15.9355 6.31787 12.5C6.31787 9.06469 9.11328 6.26947 12.5486 6.26947H12.5705C15.9958 6.28168 18.7792 9.07213 18.7792 12.5Z" fill="white"/>
<path d="M18.7794 12.5C18.7794 15.9281 15.996 18.7186 12.5708 18.7308V6.26947C15.996 6.28168 18.7794 9.07213 18.7794 12.5Z" fill="#E1EBF0"/>
<path d="M15.377 11.6028L12.5709 14.4093L11.9645 15.0156C11.8213 15.1589 11.6334 15.2304 11.4457 15.2304C11.2579 15.2304 11.0702 15.1589 10.9267 15.0156L9.62307 13.7114C9.33658 13.4249 9.33658 12.9608 9.62307 12.6742C9.90917 12.3877 10.3738 12.3877 10.6603 12.6742L11.4457 13.4596L14.3398 10.5656C14.6262 10.2789 15.0909 10.2789 15.377 10.5656C15.6635 10.8521 15.6635 11.3167 15.377 11.6028Z" fill="#B4D2D7"/>
<path d="M15.3769 11.6028L12.5708 14.4093V12.3343L14.3397 10.5656C14.6262 10.2789 15.0908 10.2789 15.3769 10.5656C15.6634 10.8521 15.6634 11.3167 15.3769 11.6028Z" fill="#6FA5AA"/>
</g>
<defs>
<clipPath id="clip0_371_6542">
<rect width="25" height="25" fill="white"/>
</clipPath>
</defs>
</svg>
