<svg width="17" height="22" viewBox="0 0 17 22" fill="none" xmlns="http://www.w3.org/2000/svg">
<path d="M16.5534 7.26892L16.5534 7.26895C16.5836 7.34126 16.6 7.41958 16.6 7.5V18V18.0001C16.5981 19.7114 15.2114 21.0981 13.5001 21.1H13.5H3.5H3.49989C1.78862 21.0981 0.401892 19.7114 0.4 18.0001L0.4 18L0.4 4V3.99989C0.401892 2.28862 1.78862 0.901892 3.49989 0.9L3.5 0.9L10 0.9C10.0804 0.9 10.1587 0.916398 10.2311 0.946608L10.2311 0.946618C10.3036 0.976955 10.3693 1.02083 10.4245 1.07608L16.5534 7.26892ZM16.5534 7.26892C16.523 7.19636 16.4792 7.13065 16.4239 7.07547L16.5534 7.26892ZM16.4239 7.07542L10.4246 1.07613L16.4239 7.07542ZM9.4 2.1V5.66699V5.66712C9.40172 7.01003 10.49 8.09828 11.8329 8.1H11.833H15.4V17.9999C15.3987 19.0487 14.5487 19.8987 13.4999 19.9H3.50013C2.45125 19.8987 1.60133 19.0487 1.6 17.9999V4.00013C1.60133 2.95125 2.45125 2.10133 3.50013 2.1L9.4 2.1ZM5 8.1H7C7.33135 8.1 7.6 7.83135 7.6 7.5C7.6 7.16865 7.33135 6.9 7 6.9H5C4.66865 6.9 4.4 7.16865 4.4 7.5C4.4 7.83135 4.66865 8.1 5 8.1ZM10.6 5.66691V2.94839L14.5516 6.9H11.8331C11.1523 6.89944 10.6006 6.34771 10.6 5.66691ZM4.4 11.5C4.4 11.8314 4.66865 12.1 5 12.1H12C12.3314 12.1 12.6 11.8314 12.6 11.5C12.6 11.1686 12.3314 10.9 12 10.9H5C4.66865 10.9 4.4 11.1686 4.4 11.5ZM12 14.9H5C4.66865 14.9 4.4 15.1686 4.4 15.5C4.4 15.8314 4.66865 16.1 5 16.1H12C12.3314 16.1 12.6 15.8314 12.6 15.5C12.6 15.1686 12.3314 14.9 12 14.9Z" fill="white" stroke="white" stroke-width="0.2"/>
</svg>
