<svg width="31" height="31" viewBox="0 0 31 31" fill="none" xmlns="http://www.w3.org/2000/svg">
<path d="M23.8118 5.63786L21.5186 7.93111L22.6248 9.03735L24.9181 6.7441L23.8118 5.63786Z" fill="#A7B7C6"/>
<path d="M24.6737 7.60626L22.9497 5.88226C22.662 5.59455 22.662 5.12809 22.9497 4.84039L23.0206 4.76944C23.3083 4.48174 23.7748 4.48174 24.0625 4.76944L25.7865 6.49345C26.0742 6.78115 26.0742 7.24761 25.7865 7.53532L25.7155 7.60626C25.4278 7.89396 24.9614 7.89396 24.6737 7.60626Z" fill="#E4E9F4"/>
<path d="M25.7515 6.45793L25.0474 5.75386C25.3547 6.06114 25.3547 6.55939 25.0474 6.86667C24.7401 7.17396 24.2419 7.17401 23.9346 6.86672L24.6386 7.57079C24.9459 7.87812 25.4442 7.87812 25.7515 7.57079C26.0587 7.26346 26.0587 6.76526 25.7515 6.45793Z" fill="#CDD2DF"/>
<path d="M16.045 2.70833H14.4805V5.70692H16.045V2.70833Z" fill="#A7B7C6"/>
<path d="M16.4858 3.4908H14.0391C13.6346 3.4908 13.3066 3.16286 13.3066 2.75836V1.87631C13.3066 1.47181 13.6346 1.14388 14.0391 1.14388H16.4858C16.8903 1.14388 17.2182 1.47181 17.2182 1.87631V2.75836C17.2182 3.16286 16.8903 3.4908 16.4858 3.4908Z" fill="#E4E9F4"/>
<path d="M16.4362 1.14388H14.8716C15.3036 1.14388 15.6539 1.49413 15.6539 1.92617V2.70846C15.6539 3.1405 15.3036 3.49075 14.8716 3.49075H16.4362C16.8683 3.49075 17.2185 3.1405 17.2185 2.70846V1.92621C17.2185 1.49413 16.8683 1.14388 16.4362 1.14388Z" fill="#CDD2DF"/>
<path d="M22.9668 22.9668C27.1987 18.735 27.2034 11.8783 22.9772 7.65217C18.751 3.426 11.8944 3.43063 7.66252 7.66253C3.43063 11.8944 3.42599 18.751 7.65216 22.9772C11.8783 27.2034 18.7349 27.1987 22.9668 22.9668Z" fill="#FFC13F"/>
<path d="M22.9775 7.65246C20.6479 5.32288 17.5191 4.27945 14.4712 4.52027C15.6767 5.09558 16.8066 5.88143 17.8048 6.8796C22.522 11.5969 22.5168 19.2502 17.7932 23.9739C16.9066 24.8605 15.9167 25.5808 14.8625 26.135C17.7802 26.2522 20.7378 25.1966 22.9671 22.9674C27.199 18.7354 27.2037 11.8787 22.9775 7.65246Z" fill="#FF9416"/>
<path d="M15.3595 24.0438C20.1843 24.0438 24.0956 20.1325 24.0956 15.3077C24.0956 10.483 20.1843 6.57173 15.3595 6.57173C10.5348 6.57173 6.62354 10.483 6.62354 15.3077C6.62354 20.1325 10.5348 24.0438 15.3595 24.0438Z" fill="#E4E9F4"/>
<path d="M17.8594 6.9355C22.3944 11.5286 22.4956 18.8559 18.1665 23.5828C21.6142 22.4137 24.0955 19.1505 24.0955 15.3077C24.0955 11.3518 21.4658 8.01067 17.8594 6.9355Z" fill="#CDD2DF"/>
<path d="M15.2628 14.7529C15.0467 14.7529 14.8716 14.5778 14.8716 14.3617V9.98074C14.8716 9.76467 15.0467 9.58957 15.2628 9.58957C15.4788 9.58957 15.6539 9.76467 15.6539 9.98074V14.3617C15.6539 14.5778 15.4788 14.7529 15.2628 14.7529Z" fill="#EB3689"/>
<path d="M15.315 16.4884C15.963 16.4884 16.4883 15.9631 16.4883 15.3151C16.4883 14.667 15.963 14.1417 15.315 14.1417C14.6669 14.1417 14.1416 14.667 14.1416 15.3151C14.1416 15.9631 14.6669 16.4884 15.315 16.4884Z" fill="#555E6B"/>
<path d="M20.7225 9.87131C20.7989 9.94773 20.899 9.98591 20.9991 9.98591C21.0992 9.98591 21.1993 9.94773 21.2756 9.87136L21.7716 9.37535C21.5944 9.18389 21.409 9.0002 21.2154 8.8252L20.7225 9.31812C20.5697 9.47091 20.5697 9.71857 20.7225 9.87131Z" fill="#555E6B"/>
<path d="M22.9741 15.2556C22.9741 15.4717 23.1493 15.6468 23.3653 15.6468H24.0883C24.0926 15.5342 24.0955 15.4213 24.0955 15.3077C24.0955 15.1591 24.0917 15.0113 24.0843 14.8644H23.3653C23.1493 14.8645 22.9741 15.0396 22.9741 15.2556Z" fill="#555E6B"/>
<path d="M15.3599 7.69329C15.5759 7.69329 15.7511 7.51819 15.7511 7.30212V6.58111C15.6214 6.57539 15.4911 6.57198 15.3599 6.57198C15.2288 6.57198 15.0985 6.57539 14.9688 6.58111V7.30212C14.9687 7.51819 15.1439 7.69329 15.3599 7.69329Z" fill="#555E6B"/>
<path d="M7.45846 15.6468C7.67448 15.6468 7.84963 15.4717 7.84963 15.2556C7.84963 15.0395 7.67448 14.8644 7.45846 14.8644H6.67617C6.66231 14.8644 6.64858 14.8652 6.63506 14.8666C6.62778 15.0128 6.62402 15.1598 6.62402 15.3077C6.62402 15.4204 6.62686 15.5324 6.6311 15.6439C6.6459 15.6456 6.66094 15.6467 6.67622 15.6467L7.45846 15.6468Z" fill="#555E6B"/>
<path d="M9.42291 21.7154C9.44098 21.7026 9.45836 21.6886 9.47447 21.6725L10.0277 21.1193C10.1804 20.9665 10.1804 20.7188 10.0277 20.5661C9.87492 20.4134 9.62721 20.4134 9.47447 20.5661L8.92129 21.1192C8.90615 21.1344 8.89297 21.1506 8.88086 21.1674C9.05342 21.3581 9.23443 21.5407 9.42291 21.7154Z" fill="#555E6B"/>
<path d="M21.8565 21.1472L21.3123 20.603C21.1596 20.4503 20.9119 20.4503 20.7591 20.603C20.6063 20.7558 20.6063 21.0034 20.7591 21.1562L21.3078 21.7048C21.4989 21.5272 21.682 21.3412 21.8565 21.1472Z" fill="#555E6B"/>
<path d="M8.96289 9.35957L9.51158 9.90827C9.58795 9.98464 9.68805 10.0228 9.78815 10.0228C9.88825 10.0228 9.98835 9.98464 10.0647 9.90827C10.2175 9.75548 10.2175 9.50782 10.0647 9.35503L9.52057 8.81088C9.32657 8.98535 9.14058 9.16856 8.96289 9.35957Z" fill="#555E6B"/>
<path d="M15.7486 24.0345C15.7502 24.0204 15.7511 24.006 15.7511 23.9914V23.2091C15.7511 22.993 15.5759 22.8179 15.3599 22.8179C15.1439 22.8179 14.9688 22.993 14.9688 23.2091V23.9914C14.9688 24.006 14.9697 24.0203 14.9712 24.0345C15.1001 24.0402 15.2296 24.0436 15.3599 24.0436C15.4902 24.0436 15.6197 24.0401 15.7486 24.0345Z" fill="#555E6B"/>
</svg>
